<mxfile host="app.diagrams.net" modified="2023-02-13T17:06:49.662Z" agent="5.0 (Windows NT 10.0; Win64; x64) AppleWebKit/537.36 (KHTML, like Gecko) Chrome/110.0.0.0 Safari/537.36" etag="V12_qkOww6rf7lVO0xHF" version="20.8.20" type="github">
  <diagram name="Page-1" id="ER8tIIyysnPyL9fk-AmR">
    <mxGraphModel dx="1784" dy="506" grid="1" gridSize="10" guides="1" tooltips="1" connect="1" arrows="1" fold="1" page="1" pageScale="1" pageWidth="850" pageHeight="1100" math="0" shadow="0">
      <root>
        <mxCell id="0" />
        <mxCell id="1" parent="0" />
        <mxCell id="MDNkvH54Dq_xONUf3aXB-1" style="edgeStyle=orthogonalEdgeStyle;rounded=0;orthogonalLoop=1;jettySize=auto;html=1;entryX=0;entryY=0.5;entryDx=0;entryDy=0;" parent="1" source="MDNkvH54Dq_xONUf3aXB-2" target="MDNkvH54Dq_xONUf3aXB-6" edge="1">
          <mxGeometry relative="1" as="geometry" />
        </mxCell>
        <mxCell id="MDNkvH54Dq_xONUf3aXB-2" value="" style="ellipse;whiteSpace=wrap;html=1;aspect=fixed;" parent="1" vertex="1">
          <mxGeometry x="46" y="80" width="60" height="60" as="geometry" />
        </mxCell>
        <mxCell id="MDNkvH54Dq_xONUf3aXB-3" value="&lt;font style=&quot;font-size: 8px;&quot;&gt;DEV&lt;/font&gt;" style="text;html=1;strokeColor=none;fillColor=none;align=center;verticalAlign=middle;whiteSpace=wrap;rounded=0;" parent="1" vertex="1">
          <mxGeometry x="46" y="95" width="60" height="30" as="geometry" />
        </mxCell>
        <mxCell id="MDNkvH54Dq_xONUf3aXB-4" style="edgeStyle=orthogonalEdgeStyle;rounded=0;orthogonalLoop=1;jettySize=auto;html=1;entryX=0;entryY=0.5;entryDx=0;entryDy=0;" parent="1" source="MDNkvH54Dq_xONUf3aXB-5" target="MDNkvH54Dq_xONUf3aXB-9" edge="1">
          <mxGeometry relative="1" as="geometry" />
        </mxCell>
        <mxCell id="MDNkvH54Dq_xONUf3aXB-5" value="" style="ellipse;whiteSpace=wrap;html=1;aspect=fixed;" parent="1" vertex="1">
          <mxGeometry x="220" y="80" width="60" height="60" as="geometry" />
        </mxCell>
        <mxCell id="MDNkvH54Dq_xONUf3aXB-6" value="&lt;font style=&quot;font-size: 8px;&quot;&gt;TEST&lt;/font&gt;" style="text;html=1;strokeColor=none;fillColor=none;align=center;verticalAlign=middle;whiteSpace=wrap;rounded=0;" parent="1" vertex="1">
          <mxGeometry x="220" y="95" width="60" height="30" as="geometry" />
        </mxCell>
        <mxCell id="MDNkvH54Dq_xONUf3aXB-7" style="edgeStyle=orthogonalEdgeStyle;rounded=0;orthogonalLoop=1;jettySize=auto;html=1;entryX=0;entryY=0.5;entryDx=0;entryDy=0;" parent="1" source="MDNkvH54Dq_xONUf3aXB-8" target="MDNkvH54Dq_xONUf3aXB-12" edge="1">
          <mxGeometry relative="1" as="geometry" />
        </mxCell>
        <mxCell id="MDNkvH54Dq_xONUf3aXB-8" value="" style="ellipse;whiteSpace=wrap;html=1;aspect=fixed;" parent="1" vertex="1">
          <mxGeometry x="365" y="80" width="60" height="60" as="geometry" />
        </mxCell>
        <mxCell id="MDNkvH54Dq_xONUf3aXB-9" value="&lt;font style=&quot;font-size: 8px;&quot;&gt;Staging&lt;span style=&quot;white-space: pre;&quot;&gt;	&lt;/span&gt;&lt;/font&gt;" style="text;html=1;strokeColor=none;fillColor=none;align=center;verticalAlign=middle;whiteSpace=wrap;rounded=0;" parent="1" vertex="1">
          <mxGeometry x="365" y="95" width="60" height="30" as="geometry" />
        </mxCell>
        <mxCell id="MDNkvH54Dq_xONUf3aXB-10" style="edgeStyle=orthogonalEdgeStyle;rounded=0;orthogonalLoop=1;jettySize=auto;html=1;" parent="1" source="MDNkvH54Dq_xONUf3aXB-11" edge="1">
          <mxGeometry relative="1" as="geometry">
            <mxPoint x="650" y="110" as="targetPoint" />
          </mxGeometry>
        </mxCell>
        <mxCell id="MDNkvH54Dq_xONUf3aXB-11" value="" style="ellipse;whiteSpace=wrap;html=1;aspect=fixed;" parent="1" vertex="1">
          <mxGeometry x="520" y="80" width="60" height="60" as="geometry" />
        </mxCell>
        <mxCell id="MDNkvH54Dq_xONUf3aXB-12" value="&lt;font style=&quot;font-size: 8px;&quot;&gt;VAL&lt;/font&gt;" style="text;html=1;strokeColor=none;fillColor=none;align=center;verticalAlign=middle;whiteSpace=wrap;rounded=0;" parent="1" vertex="1">
          <mxGeometry x="520" y="95" width="60" height="30" as="geometry" />
        </mxCell>
        <mxCell id="MDNkvH54Dq_xONUf3aXB-13" value="" style="ellipse;whiteSpace=wrap;html=1;aspect=fixed;" parent="1" vertex="1">
          <mxGeometry x="660" y="80" width="60" height="60" as="geometry" />
        </mxCell>
        <mxCell id="MDNkvH54Dq_xONUf3aXB-14" value="&lt;font style=&quot;font-size: 8px;&quot;&gt;PROD&lt;/font&gt;" style="text;html=1;strokeColor=none;fillColor=none;align=center;verticalAlign=middle;whiteSpace=wrap;rounded=0;" parent="1" vertex="1">
          <mxGeometry x="660" y="95" width="60" height="30" as="geometry" />
        </mxCell>
        <mxCell id="MDNkvH54Dq_xONUf3aXB-15" value="Informal Smoke test" style="text;html=1;strokeColor=none;fillColor=none;align=center;verticalAlign=middle;whiteSpace=wrap;rounded=0;" parent="1" vertex="1">
          <mxGeometry x="694" y="179" width="141" height="30" as="geometry" />
        </mxCell>
        <mxCell id="MDNkvH54Dq_xONUf3aXB-20" value="A: Automation, M: Manual" style="text;html=1;strokeColor=none;fillColor=none;align=center;verticalAlign=middle;whiteSpace=wrap;rounded=0;" parent="1" vertex="1">
          <mxGeometry x="199" y="518" width="202" height="30" as="geometry" />
        </mxCell>
        <mxCell id="MDNkvH54Dq_xONUf3aXB-21" value="Impact/Risk Assessment drafted" style="text;html=1;strokeColor=none;fillColor=none;align=center;verticalAlign=middle;whiteSpace=wrap;rounded=0;" parent="1" vertex="1">
          <mxGeometry x="-105" y="182" width="116" height="30" as="geometry" />
        </mxCell>
        <mxCell id="MDNkvH54Dq_xONUf3aXB-22" value="Req drafted(MR)" style="text;html=1;strokeColor=none;fillColor=none;align=center;verticalAlign=middle;whiteSpace=wrap;rounded=0;" parent="1" vertex="1">
          <mxGeometry x="-104" y="217" width="84" height="30" as="geometry" />
        </mxCell>
        <mxCell id="MDNkvH54Dq_xONUf3aXB-23" value="Test Cases design initiated (LW)" style="text;html=1;strokeColor=none;fillColor=none;align=center;verticalAlign=middle;whiteSpace=wrap;rounded=0;" parent="1" vertex="1">
          <mxGeometry x="-107" y="261" width="99" height="30" as="geometry" />
        </mxCell>
        <mxCell id="MDNkvH54Dq_xONUf3aXB-24" value="Trace drafted (MR)" style="text;html=1;strokeColor=none;fillColor=none;align=center;verticalAlign=middle;whiteSpace=wrap;rounded=0;" parent="1" vertex="1">
          <mxGeometry x="-98" y="301" width="74" height="30" as="geometry" />
        </mxCell>
        <mxCell id="MDNkvH54Dq_xONUf3aXB-25" value="" style="ellipse;whiteSpace=wrap;html=1;aspect=fixed;" parent="1" vertex="1">
          <mxGeometry x="-120" y="80" width="60" height="60" as="geometry" />
        </mxCell>
        <mxCell id="MDNkvH54Dq_xONUf3aXB-26" style="edgeStyle=orthogonalEdgeStyle;rounded=0;orthogonalLoop=1;jettySize=auto;html=1;entryX=0;entryY=0.5;entryDx=0;entryDy=0;" parent="1" source="MDNkvH54Dq_xONUf3aXB-27" target="MDNkvH54Dq_xONUf3aXB-3" edge="1">
          <mxGeometry relative="1" as="geometry" />
        </mxCell>
        <mxCell id="MDNkvH54Dq_xONUf3aXB-27" value="&lt;font style=&quot;font-size: 8px;&quot;&gt;Analysis&lt;/font&gt;" style="text;html=1;strokeColor=none;fillColor=none;align=center;verticalAlign=middle;whiteSpace=wrap;rounded=0;" parent="1" vertex="1">
          <mxGeometry x="-120" y="95" width="60" height="30" as="geometry" />
        </mxCell>
        <mxCell id="MDNkvH54Dq_xONUf3aXB-35" value="Implementation plan approved" style="text;html=1;strokeColor=none;fillColor=none;align=center;verticalAlign=middle;whiteSpace=wrap;rounded=0;" parent="1" vertex="1">
          <mxGeometry x="379" y="341" width="86" height="30" as="geometry" />
        </mxCell>
        <mxCell id="MDNkvH54Dq_xONUf3aXB-38" value="Test Plan/Test Suites approved" style="text;html=1;strokeColor=none;fillColor=none;align=center;verticalAlign=middle;whiteSpace=wrap;rounded=0;" parent="1" vertex="1">
          <mxGeometry x="383" y="182" width="97" height="30" as="geometry" />
        </mxCell>
        <mxCell id="MDNkvH54Dq_xONUf3aXB-39" value="TCs executed" style="text;html=1;strokeColor=none;fillColor=none;align=center;verticalAlign=middle;whiteSpace=wrap;rounded=0;" parent="1" vertex="1">
          <mxGeometry x="371" y="220" width="110" height="30" as="geometry" />
        </mxCell>
        <mxCell id="MDNkvH54Dq_xONUf3aXB-40" value="Execute Regression Test Suite" style="text;html=1;strokeColor=none;fillColor=none;align=center;verticalAlign=middle;whiteSpace=wrap;rounded=0;" parent="1" vertex="1">
          <mxGeometry x="381" y="263" width="112" height="30" as="geometry" />
        </mxCell>
        <mxCell id="MDNkvH54Dq_xONUf3aXB-41" value="Req approved" style="text;html=1;strokeColor=none;fillColor=none;align=center;verticalAlign=middle;whiteSpace=wrap;rounded=0;" parent="1" vertex="1">
          <mxGeometry x="375" y="299" width="97" height="30" as="geometry" />
        </mxCell>
        <mxCell id="MDNkvH54Dq_xONUf3aXB-42" value="A" style="rounded=1;whiteSpace=wrap;html=1;fillColor=#00FF00;strokeColor=#b85450;" parent="1" vertex="1">
          <mxGeometry x="354" y="184" width="20" height="16" as="geometry" />
        </mxCell>
        <mxCell id="MDNkvH54Dq_xONUf3aXB-43" value="A" style="rounded=1;whiteSpace=wrap;html=1;fillColor=#00FF00;" parent="1" vertex="1">
          <mxGeometry x="354" y="225" width="20" height="16" as="geometry" />
        </mxCell>
        <mxCell id="MDNkvH54Dq_xONUf3aXB-44" value="A" style="rounded=1;whiteSpace=wrap;html=1;fillColor=#FFFF00;" parent="1" vertex="1">
          <mxGeometry x="354" y="265" width="20" height="16" as="geometry" />
        </mxCell>
        <mxCell id="MDNkvH54Dq_xONUf3aXB-45" value="A" style="rounded=1;whiteSpace=wrap;html=1;fillColor=#FFFF00;" parent="1" vertex="1">
          <mxGeometry x="354" y="305" width="20" height="16" as="geometry" />
        </mxCell>
        <mxCell id="MDNkvH54Dq_xONUf3aXB-46" value="A" style="rounded=1;whiteSpace=wrap;html=1;fillColor=#00FF00;" parent="1" vertex="1">
          <mxGeometry x="353" y="345" width="20" height="16" as="geometry" />
        </mxCell>
        <mxCell id="MDNkvH54Dq_xONUf3aXB-49" value="Impact/Risk assessment approved" style="text;html=1;strokeColor=none;fillColor=none;align=center;verticalAlign=middle;whiteSpace=wrap;rounded=0;" parent="1" vertex="1">
          <mxGeometry x="378" y="389" width="122" height="30" as="geometry" />
        </mxCell>
        <mxCell id="MDNkvH54Dq_xONUf3aXB-50" value="" style="rounded=1;whiteSpace=wrap;html=1;fillColor=#CC0000;" parent="1" vertex="1">
          <mxGeometry x="352" y="393" width="20" height="16" as="geometry" />
        </mxCell>
        <mxCell id="MDNkvH54Dq_xONUf3aXB-58" value="M" style="rounded=1;whiteSpace=wrap;html=1;fillColor=#00FF00;" parent="1" vertex="1">
          <mxGeometry x="-128" y="225" width="20" height="16" as="geometry" />
        </mxCell>
        <mxCell id="MDNkvH54Dq_xONUf3aXB-59" value="" style="rounded=1;whiteSpace=wrap;html=1;fillColor=#CC0000;" parent="1" vertex="1">
          <mxGeometry x="-128" y="265" width="20" height="16" as="geometry" />
        </mxCell>
        <mxCell id="MDNkvH54Dq_xONUf3aXB-60" value="M" style="rounded=1;whiteSpace=wrap;html=1;fillColor=#00FF00;" parent="1" vertex="1">
          <mxGeometry x="-128" y="305" width="20" height="16" as="geometry" />
        </mxCell>
        <mxCell id="MDNkvH54Dq_xONUf3aXB-61" value="A" style="rounded=1;whiteSpace=wrap;html=1;fillColor=#FFFF00;" parent="1" vertex="1">
          <mxGeometry x="524" y="328" width="20" height="16" as="geometry" />
        </mxCell>
        <mxCell id="MDNkvH54Dq_xONUf3aXB-62" value="Installation Verification Report approved (MR)" style="text;html=1;strokeColor=none;fillColor=none;align=center;verticalAlign=middle;whiteSpace=wrap;rounded=0;" parent="1" vertex="1">
          <mxGeometry x="545" y="329" width="109" height="30" as="geometry" />
        </mxCell>
        <mxCell id="MDNkvH54Dq_xONUf3aXB-63" value="TC Executed (ADO/LW)" style="text;html=1;strokeColor=none;fillColor=none;align=center;verticalAlign=middle;whiteSpace=wrap;rounded=0;" parent="1" vertex="1">
          <mxGeometry x="552" y="182" width="74" height="30" as="geometry" />
        </mxCell>
        <mxCell id="MDNkvH54Dq_xONUf3aXB-64" value="Regression Test Suite(ADO/LW)" style="text;html=1;strokeColor=none;fillColor=none;align=center;verticalAlign=middle;whiteSpace=wrap;rounded=0;" parent="1" vertex="1">
          <mxGeometry x="553" y="223" width="90" height="30" as="geometry" />
        </mxCell>
        <mxCell id="MDNkvH54Dq_xONUf3aXB-65" value="Test Report &#39;Release for PROD&#39; approved" style="text;html=1;strokeColor=none;fillColor=none;align=center;verticalAlign=middle;whiteSpace=wrap;rounded=0;" parent="1" vertex="1">
          <mxGeometry x="545" y="278" width="113" height="27" as="geometry" />
        </mxCell>
        <mxCell id="MDNkvH54Dq_xONUf3aXB-66" style="edgeStyle=orthogonalEdgeStyle;rounded=0;orthogonalLoop=1;jettySize=auto;html=1;exitX=0.5;exitY=1;exitDx=0;exitDy=0;" parent="1" source="MDNkvH54Dq_xONUf3aXB-62" target="MDNkvH54Dq_xONUf3aXB-62" edge="1">
          <mxGeometry relative="1" as="geometry" />
        </mxCell>
        <mxCell id="MDNkvH54Dq_xONUf3aXB-67" value="A" style="rounded=1;whiteSpace=wrap;html=1;fillColor=#FFFF00;" parent="1" vertex="1">
          <mxGeometry x="524" y="273" width="20" height="16" as="geometry" />
        </mxCell>
        <mxCell id="MDNkvH54Dq_xONUf3aXB-68" value="A" style="rounded=1;whiteSpace=wrap;html=1;fillColor=#00FF00;" parent="1" vertex="1">
          <mxGeometry x="524" y="225" width="20" height="16" as="geometry" />
        </mxCell>
        <mxCell id="MDNkvH54Dq_xONUf3aXB-69" value="A" style="rounded=1;whiteSpace=wrap;html=1;fillColor=#00FF00;" parent="1" vertex="1">
          <mxGeometry x="524" y="184" width="20" height="16" as="geometry" />
        </mxCell>
        <mxCell id="MDNkvH54Dq_xONUf3aXB-70" value="A" style="rounded=1;whiteSpace=wrap;html=1;fillColor=#00FF00;" parent="1" vertex="1">
          <mxGeometry x="680" y="184" width="20" height="16" as="geometry" />
        </mxCell>
        <mxCell id="MDNkvH54Dq_xONUf3aXB-71" value="" style="rounded=1;whiteSpace=wrap;html=1;fillColor=#CC0000;" parent="1" vertex="1">
          <mxGeometry x="-128" y="184" width="20" height="16" as="geometry" />
        </mxCell>
        <mxCell id="MDNkvH54Dq_xONUf3aXB-80" value="Installation Verification Report - Release for Use approved(MR)" style="text;html=1;strokeColor=none;fillColor=none;align=center;verticalAlign=middle;whiteSpace=wrap;rounded=0;" parent="1" vertex="1">
          <mxGeometry x="700" y="228" width="141" height="30" as="geometry" />
        </mxCell>
        <mxCell id="MDNkvH54Dq_xONUf3aXB-81" value="A" style="rounded=1;whiteSpace=wrap;html=1;fillColor=#00FF00;" parent="1" vertex="1">
          <mxGeometry x="679" y="231" width="20" height="16" as="geometry" />
        </mxCell>
        <mxCell id="MDNkvH54Dq_xONUf3aXB-89" value="" style="group" parent="1" vertex="1" connectable="0">
          <mxGeometry x="231" y="478" width="370" height="30" as="geometry" />
        </mxCell>
        <mxCell id="MDNkvH54Dq_xONUf3aXB-18" value="Clarifications needed / Pending KTs" style="text;html=1;strokeColor=none;fillColor=none;align=center;verticalAlign=middle;whiteSpace=wrap;rounded=0;" parent="MDNkvH54Dq_xONUf3aXB-89" vertex="1">
          <mxGeometry x="250" width="120" height="30" as="geometry" />
        </mxCell>
        <mxCell id="MDNkvH54Dq_xONUf3aXB-84" value="" style="rounded=1;whiteSpace=wrap;html=1;fillColor=#CC0000;" parent="MDNkvH54Dq_xONUf3aXB-89" vertex="1">
          <mxGeometry y="7" width="20" height="16" as="geometry" />
        </mxCell>
        <mxCell id="MDNkvH54Dq_xONUf3aXB-85" value="Out of Scope" style="text;html=1;strokeColor=none;fillColor=none;align=center;verticalAlign=middle;whiteSpace=wrap;rounded=0;" parent="MDNkvH54Dq_xONUf3aXB-89" vertex="1">
          <mxGeometry x="23" width="80" height="30" as="geometry" />
        </mxCell>
        <mxCell id="MDNkvH54Dq_xONUf3aXB-86" value="In Scope" style="text;html=1;strokeColor=none;fillColor=none;align=center;verticalAlign=middle;whiteSpace=wrap;rounded=0;" parent="MDNkvH54Dq_xONUf3aXB-89" vertex="1">
          <mxGeometry x="142" width="78" height="30" as="geometry" />
        </mxCell>
        <mxCell id="MDNkvH54Dq_xONUf3aXB-87" value="" style="rounded=1;whiteSpace=wrap;html=1;fillColor=#00FF00;" parent="MDNkvH54Dq_xONUf3aXB-89" vertex="1">
          <mxGeometry x="122" y="7" width="20" height="16" as="geometry" />
        </mxCell>
        <mxCell id="MDNkvH54Dq_xONUf3aXB-88" value="" style="rounded=1;whiteSpace=wrap;html=1;fillColor=#FFFF00;" parent="MDNkvH54Dq_xONUf3aXB-89" vertex="1">
          <mxGeometry x="226" y="7" width="20" height="16" as="geometry" />
        </mxCell>
        <mxCell id="Q5S5uhjUgmnOi1odFuxk-1" value="" style="group" vertex="1" connectable="0" parent="1">
          <mxGeometry x="30" y="175.5" width="141" height="273" as="geometry" />
        </mxCell>
        <mxCell id="MDNkvH54Dq_xONUf3aXB-28" value="Req finalized" style="text;html=1;strokeColor=none;fillColor=none;align=center;verticalAlign=middle;whiteSpace=wrap;rounded=0;" parent="Q5S5uhjUgmnOi1odFuxk-1" vertex="1">
          <mxGeometry x="25" width="98" height="30" as="geometry" />
        </mxCell>
        <mxCell id="MDNkvH54Dq_xONUf3aXB-29" value="Test plan / suites / TCs finalized&amp;nbsp;" style="text;html=1;strokeColor=none;fillColor=none;align=center;verticalAlign=middle;whiteSpace=wrap;rounded=0;" parent="Q5S5uhjUgmnOi1odFuxk-1" vertex="1">
          <mxGeometry x="26" y="42" width="107" height="30" as="geometry" />
        </mxCell>
        <mxCell id="MDNkvH54Dq_xONUf3aXB-30" value="Execute regression test suite (ADO/LW)" style="text;html=1;strokeColor=none;fillColor=none;align=center;verticalAlign=middle;whiteSpace=wrap;rounded=0;" parent="Q5S5uhjUgmnOi1odFuxk-1" vertex="1">
          <mxGeometry x="22" y="79" width="119" height="30" as="geometry" />
        </mxCell>
        <mxCell id="MDNkvH54Dq_xONUf3aXB-31" value="Req reviewed (MR)" style="text;html=1;strokeColor=none;fillColor=none;align=center;verticalAlign=middle;whiteSpace=wrap;rounded=0;" parent="Q5S5uhjUgmnOi1odFuxk-1" vertex="1">
          <mxGeometry x="28" y="118" width="87" height="30" as="geometry" />
        </mxCell>
        <mxCell id="MDNkvH54Dq_xONUf3aXB-32" value="Trace links reviewed (MR)" style="text;html=1;strokeColor=none;fillColor=none;align=center;verticalAlign=middle;whiteSpace=wrap;rounded=0;" parent="Q5S5uhjUgmnOi1odFuxk-1" vertex="1">
          <mxGeometry x="28" y="157" width="83" height="30" as="geometry" />
        </mxCell>
        <mxCell id="MDNkvH54Dq_xONUf3aXB-33" value="Draft Implementation plan" style="text;html=1;strokeColor=none;fillColor=none;align=center;verticalAlign=middle;whiteSpace=wrap;rounded=0;" parent="Q5S5uhjUgmnOi1odFuxk-1" vertex="1">
          <mxGeometry x="25" y="198" width="116" height="30" as="geometry" />
        </mxCell>
        <mxCell id="MDNkvH54Dq_xONUf3aXB-34" value="Impact/risk assessment finalized" style="text;html=1;strokeColor=none;fillColor=none;align=center;verticalAlign=middle;whiteSpace=wrap;rounded=0;" parent="Q5S5uhjUgmnOi1odFuxk-1" vertex="1">
          <mxGeometry x="20" y="238" width="121" height="30" as="geometry" />
        </mxCell>
        <mxCell id="MDNkvH54Dq_xONUf3aXB-51" value="M" style="rounded=1;whiteSpace=wrap;html=1;fillColor=#FFFF00;" parent="Q5S5uhjUgmnOi1odFuxk-1" vertex="1">
          <mxGeometry y="5" width="20" height="16" as="geometry" />
        </mxCell>
        <mxCell id="MDNkvH54Dq_xONUf3aXB-52" value="M" style="rounded=1;whiteSpace=wrap;html=1;fillColor=#00FF00;" parent="Q5S5uhjUgmnOi1odFuxk-1" vertex="1">
          <mxGeometry y="45" width="20" height="16" as="geometry" />
        </mxCell>
        <mxCell id="MDNkvH54Dq_xONUf3aXB-53" value="A" style="rounded=1;whiteSpace=wrap;html=1;fillColor=#00FF00;" parent="Q5S5uhjUgmnOi1odFuxk-1" vertex="1">
          <mxGeometry y="80.5" width="20" height="16" as="geometry" />
        </mxCell>
        <mxCell id="MDNkvH54Dq_xONUf3aXB-54" value="M" style="rounded=1;whiteSpace=wrap;html=1;fillColor=#00FF00;" parent="Q5S5uhjUgmnOi1odFuxk-1" vertex="1">
          <mxGeometry y="121" width="20" height="16" as="geometry" />
        </mxCell>
        <mxCell id="MDNkvH54Dq_xONUf3aXB-55" value="M" style="rounded=1;whiteSpace=wrap;html=1;fillColor=#00FF00;" parent="Q5S5uhjUgmnOi1odFuxk-1" vertex="1">
          <mxGeometry y="161" width="20" height="16" as="geometry" />
        </mxCell>
        <mxCell id="MDNkvH54Dq_xONUf3aXB-56" value="" style="rounded=1;whiteSpace=wrap;html=1;fillColor=#CC0000;" parent="Q5S5uhjUgmnOi1odFuxk-1" vertex="1">
          <mxGeometry y="203" width="20" height="16" as="geometry" />
        </mxCell>
        <mxCell id="MDNkvH54Dq_xONUf3aXB-57" value="" style="rounded=1;whiteSpace=wrap;html=1;fillColor=#CC0000;" parent="Q5S5uhjUgmnOi1odFuxk-1" vertex="1">
          <mxGeometry y="243" width="20" height="16" as="geometry" />
        </mxCell>
        <mxCell id="Q5S5uhjUgmnOi1odFuxk-2" value="TCs executed (ADO/LW)" style="text;html=1;strokeColor=none;fillColor=none;align=center;verticalAlign=middle;whiteSpace=wrap;rounded=0;" vertex="1" parent="1">
          <mxGeometry x="214" y="180" width="97" height="30" as="geometry" />
        </mxCell>
        <mxCell id="Q5S5uhjUgmnOi1odFuxk-3" value="A" style="rounded=1;whiteSpace=wrap;html=1;fillColor=#00FF00;strokeColor=#b85450;" vertex="1" parent="1">
          <mxGeometry x="196" y="182" width="20" height="16" as="geometry" />
        </mxCell>
        <mxCell id="Q5S5uhjUgmnOi1odFuxk-4" value="Execute regression test suite (ADO/LW)" style="text;html=1;strokeColor=none;fillColor=none;align=center;verticalAlign=middle;whiteSpace=wrap;rounded=0;" vertex="1" parent="1">
          <mxGeometry x="217" y="222.5" width="119" height="30" as="geometry" />
        </mxCell>
        <mxCell id="Q5S5uhjUgmnOi1odFuxk-5" value="A" style="rounded=1;whiteSpace=wrap;html=1;fillColor=#00FF00;" vertex="1" parent="1">
          <mxGeometry x="195" y="224" width="20" height="16" as="geometry" />
        </mxCell>
      </root>
    </mxGraphModel>
  </diagram>
</mxfile>
